<svg width="100%" viewBox="0 0 680 520" xmlns="http://www.w3.org/2000/svg">
  <defs>
    <linearGradient id="bg" x1="0%" y1="0%" x2="100%" y2="100%">
      <stop offset="0%" stop-color="#1E6EF0"/>
      <stop offset="48%" stop-color="#7B3FE4"/>
      <stop offset="100%" stop-color="#00C49A"/>
    </linearGradient>
  </defs>

  <!-- ── SHIELD HEAD ── bottom edge meets heart top -->
  <path d="M 340 82 L 394 102 L 394 162 Q 394 198 340 212 Q 286 198 286 162 L 286 102 Z" fill="url(#bg)" style="stroke:none;color:rgb(0, 0, 0);stroke-width:1px;stroke-linecap:butt;stroke-linejoin:miter;opacity:1;font-family:&quot;Anthropic Sans&quot;, -apple-system, BlinkMacSystemFont, &quot;Segoe UI&quot;, sans-serif;font-size:16px;font-weight:400;text-anchor:start;dominant-baseline:auto"/>

  <!-- Keyhole inside shield -->
  <circle cx="340" cy="146" r="13" fill="white" opacity="0.88" style="fill:rgb(255, 255, 255);stroke:none;color:rgb(0, 0, 0);stroke-width:1px;stroke-linecap:butt;stroke-linejoin:miter;opacity:0.88;font-family:&quot;Anthropic Sans&quot;, -apple-system, BlinkMacSystemFont, &quot;Segoe UI&quot;, sans-serif;font-size:16px;font-weight:400;text-anchor:start;dominant-baseline:auto"/>
  <path d="M 332 157 L 330 176 Q 330 180 334 180 L 346 180 Q 350 180 350 176 L 348 157 Z" fill="white" opacity="0.88" style="fill:rgb(255, 255, 255);stroke:none;color:rgb(0, 0, 0);stroke-width:1px;stroke-linecap:butt;stroke-linejoin:miter;opacity:0.88;font-family:&quot;Anthropic Sans&quot;, -apple-system, BlinkMacSystemFont, &quot;Segoe UI&quot;, sans-serif;font-size:16px;font-weight:400;text-anchor:start;dominant-baseline:auto"/>

  <!-- ── HEART BODY ── top of heart starts right at shield bottom (~212) -->
  <path d="&#10;    M 340 440&#10;    C 295 407 182 346 182 262&#10;    C 182 216 214 190 248 190&#10;    C 272 190 300 204 340 236&#10;    C 380 204 408 190 432 190&#10;    C 466 190 498 216 498 262&#10;    C 498 346 385 407 340 440 Z" fill="url(#bg)" style="stroke:none;color:rgb(0, 0, 0);stroke-width:1px;stroke-linecap:butt;stroke-linejoin:miter;opacity:1;font-family:&quot;Anthropic Sans&quot;, -apple-system, BlinkMacSystemFont, &quot;Segoe UI&quot;, sans-serif;font-size:16px;font-weight:400;text-anchor:start;dominant-baseline:auto"/>

</svg>