<svg viewBox="0 0 120 120" xmlns="http://www.w3.org/2000/svg">
  <!-- Carlita - purple cat-car from Gabby's Dollhouse -->
  <!-- Cat ears -->
  <polygon points="25,45 35,15 50,40" fill="#9C27B0" stroke="#7B1FA2" stroke-width="2"/>
  <polygon points="95,45 85,15 70,40" fill="#9C27B0" stroke="#7B1FA2" stroke-width="2"/>
  <polygon points="30,42 38,22 48,40" fill="#CE93D8"/>
  <polygon points="90,42 82,22 72,40" fill="#CE93D8"/>

  <!-- Car body / face -->
  <rect x="18" y="38" width="84" height="50" rx="22" fill="#9C27B0" stroke="#7B1FA2" stroke-width="2"/>

  <!-- Eyes - big and sparkly -->
  <ellipse cx="42" cy="58" rx="12" ry="13" fill="white"/>
  <ellipse cx="78" cy="58" rx="12" ry="13" fill="white"/>
  <ellipse cx="44" cy="57" rx="7" ry="8" fill="#4A148C"/>
  <ellipse cx="80" cy="57" rx="7" ry="8" fill="#4A148C"/>
  <circle cx="46" cy="54" r="3" fill="white"/>
  <circle cx="82" cy="54" r="3" fill="white"/>
  <circle cx="42" cy="60" r="1.5" fill="white"/>
  <circle cx="78" cy="60" r="1.5" fill="white"/>

  <!-- Cute nose -->
  <ellipse cx="60" cy="67" rx="5" ry="3.5" fill="#7B1FA2"/>

  <!-- Smile -->
  <path d="M 48 72 Q 60 82 72 72" fill="none" stroke="#7B1FA2" stroke-width="2.5" stroke-linecap="round"/>

  <!-- Whiskers -->
  <line x1="10" y1="60" x2="30" y2="62" stroke="#7B1FA2" stroke-width="1.5" stroke-linecap="round"/>
  <line x1="10" y1="68" x2="30" y2="68" stroke="#7B1FA2" stroke-width="1.5" stroke-linecap="round"/>
  <line x1="90" y1="62" x2="110" y2="60" stroke="#7B1FA2" stroke-width="1.5" stroke-linecap="round"/>
  <line x1="90" y1="68" x2="110" y2="68" stroke="#7B1FA2" stroke-width="1.5" stroke-linecap="round"/>

  <!-- Wheels -->
  <circle cx="35" cy="92" r="10" fill="#333" stroke="#7B1FA2" stroke-width="2"/>
  <circle cx="35" cy="92" r="4" fill="#888"/>
  <circle cx="85" cy="92" r="10" fill="#333" stroke="#7B1FA2" stroke-width="2"/>
  <circle cx="85" cy="92" r="4" fill="#888"/>

  <!-- Sparkles -->
  <text x="8" y="30" font-size="12">✨</text>
  <text x="100" y="25" font-size="10">💜</text>
</svg>
