<svg viewBox="0 0 120 120" xmlns="http://www.w3.org/2000/svg">
  <!-- #flower# - Cute kawaii flower -->

  <!-- Petals -->
  <ellipse cx="60" cy="25" rx="18" ry="22" fill="#FF80AB"/>
  <ellipse cx="60" cy="25" rx="18" ry="22" fill="#FF4081" transform="rotate(72 60 55)"/>
  <ellipse cx="60" cy="25" rx="18" ry="22" fill="#FF80AB" transform="rotate(144 60 55)"/>
  <ellipse cx="60" cy="25" rx="18" ry="22" fill="#FF4081" transform="rotate(216 60 55)"/>
  <ellipse cx="60" cy="25" rx="18" ry="22" fill="#FF80AB" transform="rotate(288 60 55)"/>

  <!-- Center -->
  <circle cx="60" cy="55" r="16" fill="#FFD93D" stroke="#F9A825" stroke-width="2"/>

  <!-- Cute face on center -->
  <ellipse cx="54" cy="52" rx="3" ry="3.5" fill="#5D4037"/>
  <ellipse cx="66" cy="52" rx="3" ry="3.5" fill="#5D4037"/>
  <circle cx="55.5" cy="50.5" r="1.2" fill="white"/>
  <circle cx="67.5" cy="50.5" r="1.2" fill="white"/>
  <path d="M 55 59 Q 60 64 65 59" fill="none" stroke="#5D4037" stroke-width="2" stroke-linecap="round"/>

  <!-- Stem -->
  <path d="M 60 71 Q 58 90 55 110" fill="none" stroke="#4CAF50" stroke-width="4" stroke-linecap="round"/>

  <!-- Leaf -->
  <path d="M 56 90 Q 40 82 45 95 Q 50 92 56 90" fill="#66BB6A"/>
</svg>
