<svg viewBox="0 0 120 120" xmlns="http://www.w3.org/2000/svg">
  <!-- #love# - Big sparkly heart -->
  <defs>
    <linearGradient id="heartGrad" x1="0%" y1="0%" x2="100%" y2="100%">
      <stop offset="0%" stop-color="#FF6B9D"/>
      <stop offset="50%" stop-color="#FF1744"/>
      <stop offset="100%" stop-color="#D50000"/>
    </linearGradient>
  </defs>

  <!-- Main heart -->
  <path d="M 60 100 C 20 75 5 50 5 35 C 5 18 18 8 33 8 C 43 8 52 14 60 25 C 68 14 77 8 87 8 C 102 8 115 18 115 35 C 115 50 100 75 60 100 Z"
    fill="url(#heartGrad)" stroke="#C62828" stroke-width="2"/>

  <!-- Shine -->
  <path d="M 35 25 Q 40 18 50 22" fill="none" stroke="white" stroke-width="3" stroke-linecap="round" opacity="0.6"/>

  <!-- Sparkles around -->
  <circle cx="20" cy="15" r="2" fill="#FFD700"/>
  <circle cx="100" cy="12" r="2.5" fill="#FFD700"/>
  <circle cx="15" cy="70" r="1.5" fill="#FF69B4"/>
  <circle cx="105" cy="65" r="2" fill="#FF69B4"/>

  <!-- Star sparkles -->
  <polygon points="25,8 26.5,13 31,13 27.5,16 29,21 25,18 21,21 22.5,16 19,13 23.5,13" fill="#FFD700"/>
  <polygon points="98,5 99,8.5 103,8.5 100,11 101,14.5 98,12 95,14.5 96,11 93,8.5 97,8.5" fill="#FFD700"/>
</svg>
